<?xml version="1.0" encoding="UTF-8" standalone="no"?>
<!-- Generator: Adobe Illustrator 18.1.1, SVG Export Plug-In . SVG Version: 6.00 Build 0)  -->

<svg
   xmlns:dc="http://purl.org/dc/elements/1.1/"
   xmlns:cc="http://creativecommons.org/ns#"
   xmlns:rdf="http://www.w3.org/1999/02/22-rdf-syntax-ns#"
   xmlns:svg="http://www.w3.org/2000/svg"
   xmlns="http://www.w3.org/2000/svg"
   xmlns:xlink="http://www.w3.org/1999/xlink"
   xmlns:sodipodi="http://sodipodi.sourceforge.net/DTD/sodipodi-0.dtd"
   xmlns:inkscape="http://www.inkscape.org/namespaces/inkscape"
   version="1.1"
   x="0px"
   y="0px"
   viewBox="0 0 354.13852 354.13852"
   enable-background="new 0 0 512 512"
   xml:space="preserve"
   id="svg4194"
   inkscape:version="0.91 r13725"
   sodipodi:docname="icon.svg"
   width="354.13852"
   height="354.13852"><metadata
     id="metadata4212"><rdf:RDF><cc:Work
         rdf:about=""><dc:format>image/svg+xml</dc:format><dc:type
           rdf:resource="http://purl.org/dc/dcmitype/StillImage" /><dc:title></dc:title></cc:Work></rdf:RDF></metadata><defs
     id="defs4210"><linearGradient
       id="linearGradient4226-3"
       inkscape:collect="always"><stop
         id="stop4236"
         offset="0"
         style="stop-color:#34aaff;stop-opacity:1;" /><stop
         id="stop4238"
         offset="1"
         style="stop-color:#34aaff;stop-opacity:0;" /></linearGradient><linearGradient
       inkscape:collect="always"
       xlink:href="#linearGradient4226-3"
       id="linearGradient4232"
       x1="160.11636"
       y1="366.77817"
       x2="160.11636"
       y2="-850.85089"
       gradientUnits="userSpaceOnUse"
       gradientTransform="matrix(0.46620371,0,0,0.46620371,95.198298,181.38934)" /></defs><sodipodi:namedview
     pagecolor="#ffffff"
     bordercolor="#666666"
     borderopacity="1"
     objecttolerance="10"
     gridtolerance="10"
     guidetolerance="10"
     inkscape:pageopacity="0"
     inkscape:pageshadow="2"
     inkscape:window-width="1366"
     inkscape:window-height="709"
     id="namedview4208"
     showgrid="false"
     inkscape:zoom="0.37979368"
     inkscape:cx="510.7163"
     inkscape:cy="-106.34864"
     inkscape:window-x="0"
     inkscape:window-y="30"
     inkscape:window-maximized="1"
     inkscape:current-layer="svg4194"
     fit-margin-top="0"
     fit-margin-left="0"
     fit-margin-right="0"
     fit-margin-bottom="0" /><circle
     style="opacity:1;fill:url(#linearGradient4232);fill-opacity:1;fill-rule:evenodd;stroke:none;stroke-width:7.08661413;stroke-linecap:round;stroke-linejoin:bevel;stroke-miterlimit:4;stroke-dasharray:none;stroke-opacity:1"
     id="path4214"
     cx="177.06926"
     cy="177.06926"
     r="177.06926" /><g
     id="g4216"
     transform="translate(-472.6902,-74.332077)"><path
       d="m 594.06024,269.78399 -19.01691,-19.01692 22.97172,-22.97172 c 20.7745,-20.7745 54.57567,-20.77404 75.35064,0 -5.75119,6.49365 -2.81047,15.27465 -19.01692,19.01692 -10.28771,-10.28819 -27.02909,-10.28865 -37.31727,0 z"
       id="path4197"
       inkscape:connector-curvature="0"
       style="fill:#ffffff;fill-opacity:1"
       sodipodi:nodetypes="ccsccsc" /><path
       d="m 663.80338,290.63821 c -14.2318,0 -27.61184,-5.54223 -37.67485,-15.60617 -20.77404,-20.77403 -20.7745,-54.57567 0,-75.35017 l 45.63761,-45.63761 c 10.06394,-10.06348 23.44352,-15.60571 37.67532,-15.60571 14.2318,0 27.61185,5.54223 37.67532,15.60571 10.06348,10.06347 15.60571,23.44398 15.60571,37.67532 0,14.23133 -5.54223,27.61184 -15.60571,37.67532 l -45.63808,45.63761 c -10.063,10.06347 -23.44258,15.6057 -37.67532,15.6057 z m 45.63808,-125.30623 c -7.04806,0 -13.67468,2.74501 -18.65887,7.72873 l -45.63761,45.63761 c -10.28818,10.28865 -10.28818,27.02909 0,37.31727 4.98372,4.98372 11.61034,7.72873 18.6584,7.72873 7.04854,0 13.67469,-2.74454 18.65841,-7.72826 l 45.63808,-45.63808 c 4.98372,-4.98372 7.72872,-11.61034 7.72872,-18.6584 0,-7.04854 -2.745,-13.67469 -7.72872,-18.65887 -4.98372,-4.98372 -11.61034,-7.72873 -18.65841,-7.72873 z"
       id="path4200"
       inkscape:connector-curvature="0"
       style="fill:#f4f5f5;fill-opacity:1" /><path
       d="m 690.03946,164.42661 c -2.61307,0 -5.14549,-1.38742 -6.49095,-3.84012 -1.96458,-3.58091 -0.65408,-8.07651 2.92683,-10.04109 14.629,-8.02384 32.22307,-8.06766 45.91827,-0.11376 3.53195,2.0513 4.73196,6.57767 2.68067,10.1101 -2.05177,3.53196 -6.57721,4.73196 -10.1101,2.68067 -9.10029,-5.28582 -21.41646,-5.17207 -31.37504,0.29138 -1.12821,0.61865 -2.3478,0.91282 -3.54968,0.91282 z"
       id="path4203"
       inkscape:connector-curvature="0"
       style="fill:#d8d8da;fill-opacity:1" /><path
       d="m 590.05229,364.36413 c -13.64439,0 -27.2883,-5.1935 -37.67532,-15.58006 -20.77404,-20.7745 -20.77404,-54.5766 0,-75.3511 l 32.85104,-32.85058 19.01645,19.01691 -32.85104,32.85105 c -10.28819,10.28818 -10.28819,27.02909 0,37.31727 5.14362,5.14363 11.90218,7.71567 18.6584,7.71614 6.75809,9.3e-4 13.51385,-2.57158 18.65887,-7.71614 l 45.63762,-45.63808 c 4.98371,-4.98371 7.72872,-11.61033 7.72872,-18.6584 0,-7.04807 -2.74454,-13.67469 -7.72872,-18.65841 l 19.01691,-19.01691 c 20.77451,20.7745 20.77451,54.5766 0,75.35064 l -45.63761,45.63808 c -10.38702,10.38655 -24.03094,15.57959 -37.67532,15.57959 z"
       id="path4206"
       inkscape:connector-curvature="0"
       style="fill:#ffffff;fill-opacity:1" /></g></svg>