<?xml version="1.0" encoding="UTF-8" standalone="no"?>
<svg
   xmlns:dc="http://purl.org/dc/elements/1.1/"
   xmlns:cc="http://creativecommons.org/ns#"
   xmlns:rdf="http://www.w3.org/1999/02/22-rdf-syntax-ns#"
   xmlns:svg="http://www.w3.org/2000/svg"
   xmlns="http://www.w3.org/2000/svg"
   xmlns:sodipodi="http://sodipodi.sourceforge.net/DTD/sodipodi-0.dtd"
   xmlns:inkscape="http://www.inkscape.org/namespaces/inkscape"
   viewBox="0 0 214.59317 70.160932"
   height="70.160934"
   width="214.59317"
   xml:space="preserve"
   version="1.1"
   id="svg4155"
   inkscape:version="0.91 r13725"
   sodipodi:docname="banner.svg"><sodipodi:namedview
     pagecolor="#ffffff"
     bordercolor="#666666"
     borderopacity="1"
     objecttolerance="10"
     gridtolerance="10"
     guidetolerance="10"
     inkscape:pageopacity="1"
     inkscape:pageshadow="2"
     inkscape:window-width="1366"
     inkscape:window-height="768"
     id="namedview27"
     showgrid="false"
     inkscape:zoom="0.50079774"
     inkscape:cx="-255.12518"
     inkscape:cy="53.051791"
     inkscape:window-x="0"
     inkscape:window-y="0"
     inkscape:window-maximized="0"
     inkscape:current-layer="svg4155"
     fit-margin-top="0"
     fit-margin-left="0"
     fit-margin-right="0"
     fit-margin-bottom="0" /><metadata
     id="metadata4161"><rdf:RDF><cc:Work
         rdf:about=""><dc:format>image/svg+xml</dc:format><dc:type
           rdf:resource="http://purl.org/dc/dcmitype/StillImage" /><dc:title></dc:title></cc:Work></rdf:RDF></metadata><defs
     id="defs4159"><clipPath
       id="clipPath4169"
       clipPathUnits="userSpaceOnUse"><path
         id="path4171"
         d="m 0,841.89 595.28,0 L 595.28,0 0,0 0,841.89 Z"
         inkscape:connector-curvature="0" /></clipPath></defs><g
     transform="matrix(0.39519484,0,0,-0.39519484,-12.372049,195.52186)"
     id="g4163"><g
       id="g4165"><g
         clip-path="url(#clipPath4169)"
         id="g4167"><g
           transform="translate(61.8032,481.25)"
           id="g4173"><path
             id="path4175"
             style="fill:#231f20;fill-opacity:1;fill-rule:nonzero;stroke:none"
             d="m 0,0 0.002,0.152 0,0.006 25.214,0 36.787,0 0,13.34 -62.001,0 0,-0.006 c -16.844,0 -30.499,-13.655 -30.499,-30.5 0,-16.677 13.386,-30.219 29.998,-30.487 l 0,-0.007 0.501,0 0.001,0 61.499,0 0.501,0 0,13.34 -0.501,0 -36.286,0 -25.213,0 -0.502,0 0.003,0.172 c -9.161,0.265 -16.51,7.758 -16.51,16.982 0,9.392 7.614,17.007 17.006,17.008"
             inkscape:connector-curvature="0" /></g><path
           id="path4177"
           style="fill:#231f20;fill-opacity:1;fill-rule:nonzero;stroke:none"
           d="m 336.637,433.749 -13.34,0 0,60.998 13.34,0 0,-60.998 z"
           inkscape:connector-curvature="0" /><g
           transform="translate(220.5508,451.665)"
           id="g4179"><path
             id="path4181"
             style="fill:#231f20;fill-opacity:1;fill-rule:nonzero;stroke:none"
             d="m 0,0 c -0.269,16.612 -13.811,29.998 -30.487,29.998 l -0.007,0 -48.087,0 0,13.084 -13.34,0 0,-60.998 13.34,0 0,34.574 14.002,0 8.876,0 24.791,0 0,-0.172 c 0.142,0.004 0.281,0.022 0.425,0.022 9.224,0 16.716,-7.35 16.982,-16.51 l 0.172,0.002 0,-0.502 0,-17.415 13.34,0 0,17.415 0,0.001 L 0.007,0 0,0 Z"
             inkscape:connector-curvature="0" /></g><g
           transform="translate(302.4629,464.2471)"
           id="g4183"><path
             id="path4185"
             style="fill:#231f20;fill-opacity:1;fill-rule:nonzero;stroke:none"
             d="m 0,0 0,-11.994 -64.82,0 0,11.996 0.006,0 0.152,0.002 c 0.002,8.78 6.659,16.003 15.198,16.907 l 33.639,0.032 C -7.221,16.276 -0.424,9.215 -0.172,0.5 L 0,0.502 0,0 Z M 13.334,0.502 C 13.064,17.115 -0.477,30.5 -17.154,30.5 l -0.006,0 -30.5,0 C -64.5,30.497 -78.154,16.844 -78.154,0.002 l -0.006,0 0,-30.501 13.34,0 0,5.165 64.82,0 0,-5.165 13.34,0 0,30.499 0,0.002 0,0.5 -0.006,0 z"
             inkscape:connector-curvature="0" /></g><g
           transform="translate(357.3926,433.748)"
           id="g4187"><path
             id="path4189"
             style="fill:#231f20;fill-opacity:1;fill-rule:nonzero;stroke:none"
             d="m 0,0 0,5.286 0,25.215 0.006,0 0.152,0.002 c 0.002,8.78 6.658,16.003 15.197,16.907 l 33.641,0.032 c 8.604,-0.667 15.4,-7.728 15.652,-16.443 l 0.172,0.002 0,-0.502 0,-25.213 0,-5.286 13.34,0 0,30.499 0,0.002 0,0.5 -0.006,0 C 77.885,47.614 64.344,60.999 47.666,60.999 l -0.006,0 -30.5,0 C 0.32,60.996 -13.334,47.343 -13.334,30.501 l -0.006,0 L -13.34,0 0,0 Z"
             inkscape:connector-curvature="0" /></g><g
           transform="translate(407.4629,430.0771)"
           id="g4291"><path
             id="path4293"
             style="fill:#2e3192;fill-opacity:1;fill-rule:evenodd;stroke:none"
             d="m 0,0 c 1.865,0.038 3.703,-0.177 5.49,-0.538 1.912,-0.388 3.606,-1.175 5.151,-2.119 1.164,-0.71 1.16,-2.046 0.089,-2.704 -2.105,-1.294 -4.427,-2.138 -7.193,-2.031 -0.543,0.022 -1.099,0.101 -1.586,0.29 -1.769,0.692 -3.597,0.557 -5.467,0.331 -3.439,-0.414 -6.636,-1.402 -9.791,-2.459 -1.759,-0.591 -3.338,-1.459 -4.804,-2.443 -0.944,-0.634 -1.631,-1.363 -1.885,-2.296 -0.295,-1.082 -0.344,-2.187 -0.16,-3.284 0.326,-1.933 1.535,-3.609 2.662,-5.309 1.342,-2.031 2.703,-4.057 3.955,-6.121 0.371,-0.611 0.601,-1.284 1.006,-1.896 0.549,-0.831 1.076,-1.669 1.523,-2.538 0.817,-1.585 1.455,-3.207 1.711,-4.904 0.168,-1.124 0.229,-2.254 0.387,-3.377 0.086,-0.635 -0.219,-1.133 -0.721,-1.586 -1.738,-1.569 -3.373,-3.225 -5.5,-4.495 -1.638,-0.978 -3.148,-2.072 -4.963,-2.898 -1.91,-0.867 -3.769,-1.807 -5.705,-2.643 -1.261,-0.544 -2.51,-1.111 -3.801,-1.609 -1.476,-0.568 -3.066,-0.924 -4.64,-1.291 -1.959,-0.459 -3.846,-1.109 -5.848,-1.434 -2.898,-0.468 -5.719,-1.201 -8.66,-1.509 -1.168,-0.121 -2.338,-0.217 -3.533,-0.155 -0.951,0.049 -1.908,-0.087 -2.871,-0.066 -2.272,0.053 -4.426,0.41 -6.448,1.252 -1.111,0.463 -1.601,1.207 -1.72,2.086 -0.178,1.301 -0.096,2.619 0.371,3.877 0.349,0.939 1.17,1.681 2.254,2.219 0.822,0.406 1.703,0.72 2.631,0.955 1.435,0.363 3.17,-0.17 3.894,-1.196 0.197,-0.279 0.223,-0.572 0.127,-0.867 -0.23,-0.724 -0.631,-1.394 -1.156,-2.015 -0.334,-0.395 -0.934,-0.344 -1.428,-0.416 -0.978,-0.141 -1.56,-0.561 -1.596,-1.254 -0.033,-0.709 0.487,-1.17 1.45,-1.36 0.804,-0.158 1.582,0.045 2.373,0.061 2.556,0.051 5.043,0.463 7.502,0.974 3.365,0.702 6.693,1.483 9.92,2.524 2.033,0.654 4.058,1.332 6.138,1.906 1.221,0.336 2.197,1.018 3.303,1.518 1.992,0.9 3.82,1.98 5.625,3.084 1.758,1.076 3.478,2.197 4.912,3.539 0.611,0.57 1.285,1.191 1.047,2.033 -0.27,0.957 -0.6,1.904 -0.9,2.856 -0.432,1.369 -1.194,2.628 -1.995,3.89 -0.834,1.319 -1.728,2.608 -2.693,3.869 -1.648,2.155 -3.139,4.371 -4.502,6.643 -1.107,1.844 -1.826,3.782 -2.459,5.739 -0.424,1.303 -0.369,2.641 -0.123,3.981 0.291,1.59 1.41,2.836 2.647,4.033 1.652,1.601 3.693,2.851 5.929,3.957 2.403,1.186 4.856,2.289 7.465,3.17 1.697,0.572 3.494,0.939 5.301,1.263 C -4.889,-0.332 -2.465,-0.056 0,0"
             inkscape:connector-curvature="0" /></g><g
           transform="translate(419.6777,382.7998)"
           id="g4295"><path
             id="path4297"
             style="fill:#2e3192;fill-opacity:1;fill-rule:evenodd;stroke:none"
             d="m 0,0 c 0.145,-1.203 0.002,-2.664 -0.174,-4.098 -0.262,-2.131 -1.355,-4.021 -3.709,-5.336 -0.455,-0.255 -1,-0.343 -1.525,-0.421 -0.707,-0.104 -1.365,-0.36 -2.131,-0.293 -1.057,0.093 -1.758,0.574 -2.295,1.197 -0.445,0.515 -0.779,1.094 -1.104,1.664 -0.458,0.805 -0.353,1.596 0.305,2.316 0.444,0.489 0.899,0.979 1.424,1.41 0.961,0.791 1.527,1.704 1.789,2.764 0.402,1.645 0.631,3.299 0.652,4.971 0.006,0.488 -0.13,0.969 -0.136,1.461 -0.014,1.666 1.072,2.937 2.451,4.094 0.5,0.419 1.262,0.301 1.699,-0.235 C -1.955,8.514 -1.209,7.5 -0.937,6.348 -0.732,5.473 -0.42,4.617 -0.229,3.738 0.023,2.576 -0.027,1.416 0,0"
             inkscape:connector-curvature="0" /></g><g
           transform="translate(432.0352,411.5576)"
           id="g4299"><path
             id="path4301"
             style="fill:#2e3192;fill-opacity:1;fill-rule:evenodd;stroke:none"
             d="m 0,0 c -1.121,0.245 -2.283,0.574 -3.027,1.449 -1.309,1.536 -1.1,3.084 -0.071,4.646 0.418,0.634 0.905,1.226 1.604,1.696 0.627,0.421 1.344,0.688 2.209,0.582 C 0.891,8.353 1.086,8.31 1.221,8.227 2.869,7.215 4.113,5.983 4.164,4.297 4.186,3.614 3.613,2.978 3.131,2.39 2.654,1.808 2.105,1.261 1.572,0.708 1.209,0.334 0.754,0.062 0,0"
             inkscape:connector-curvature="0" /></g><g
           transform="translate(445.0312,387.9639)"
           id="g4303"><path
             id="path4305"
             style="fill:#2e3192;fill-opacity:1;fill-rule:nonzero;stroke:none"
             d="M 0,0 C -0.072,0.27 -0.033,0.531 -0.027,0.797 -0.115,1.258 0.049,1.701 0.123,2.15 0.33,3.391 1.455,4.117 2.643,4.766 4.453,5.753 6.41,6.526 8.619,6.856 9.092,6.927 9.219,6.78 9.184,6.47 9.092,5.65 8.553,4.959 8.02,4.289 6.451,2.316 4.246,0.805 1.881,-0.572 0.881,-1.154 0.307,-1.131 0,0 m -1.937,-17.254 c -0.17,-0.541 -0.137,-1.111 -0.313,-1.66 -0.328,-1.018 -0.617,-2.041 -0.967,-3.055 -0.224,-0.656 -0.521,-1.301 -0.681,-1.976 -0.141,-0.604 -0.489,-1.184 -0.795,-1.758 -0.705,-1.32 -1.377,-2.651 -1.998,-3.998 -0.496,-1.072 -0.961,-2.156 -1.772,-3.135 -0.338,-0.406 -0.418,-0.932 -0.687,-1.377 -0.231,-0.385 -0.342,-0.834 -0.838,-1.105 -0.063,-0.032 -0.139,-0.098 -0.137,-0.147 0.039,-0.56 -0.578,-0.89 -0.785,-1.348 -0.328,-0.726 -1.022,-1.269 -1.424,-1.955 -1.039,-1.765 -2.32,-3.443 -3.332,-5.222 -0.441,-0.776 -1.193,-1.41 -1.645,-2.18 -0.953,-1.615 -2.431,-2.969 -3.724,-4.414 -1.184,-1.322 -2.559,-2.531 -3.82,-3.809 -1.506,-1.523 -3.288,-2.855 -4.916,-4.295 -1.395,-1.23 -3.043,-2.199 -4.737,-3.152 -0.959,-0.541 -1.828,-1.166 -2.842,-1.668 -0.869,-0.431 -1.808,-0.746 -2.685,-1.15 -0.326,-0.153 -0.694,-0.313 -1.063,-0.217 -0.986,-0.002 -0.947,0 -1.009,0.803 -0.106,1.343 0.367,2.572 0.955,3.82 0.673,1.43 1.388,2.846 2.3,4.188 1.342,1.968 2.393,4.052 3.872,5.96 0.783,1.01 1.621,2.006 2.25,3.067 0.793,1.336 1.816,2.564 2.722,3.844 0.684,0.964 1.354,1.941 2.194,2.839 0.861,0.926 1.628,1.903 2.455,2.848 0.886,1.014 1.791,2.018 2.693,3.024 0.695,0.771 1.396,1.544 2.104,2.31 1.343,1.457 2.625,2.945 4.035,4.363 1.818,1.838 3.826,3.555 5.673,5.37 0.764,0.752 1.506,1.525 2.375,2.193 1.34,1.033 2.639,2.101 3.879,3.199 0.688,0.608 1.553,1.113 2.045,1.854 0.098,0.142 0.282,0.252 0.51,0.193 0.238,-0.063 0.408,-0.172 0.402,-0.41 -0.013,-0.625 -0.101,-1.235 -0.294,-1.844 M 125.707,1.572 c -1.457,-0.326 -2.957,-0.554 -4.371,-0.968 -3.457,-1.01 -7.045,-1.676 -10.563,-2.53 -1.281,-0.31 -2.576,-0.588 -3.857,-0.908 -0.187,-0.047 -0.271,-0.187 -0.461,-0.199 -1.496,-0.098 -2.824,-0.674 -4.289,-0.887 -1.053,-0.152 -2.1,-0.392 -3.146,-0.607 -0.715,-0.147 -1.432,-0.346 -2.163,-0.385 -1.244,-0.07 -2.462,-0.25 -3.681,-0.41 -1.934,-0.254 -3.848,-0.535 -5.822,-0.584 -1.424,-0.035 -2.854,-0.02 -4.28,-0.129 -2.213,-0.168 -4.324,0.072 -6.322,0.9 -1.611,0.668 -3.025,1.469 -3.955,2.721 -0.41,0.553 -0.615,1.16 -0.912,1.742 -0.711,1.399 -0.985,2.86 -0.754,4.348 0.158,1.029 -0.567,2.021 -1.86,2.299 C 68.4,6.162 67.52,6.126 66.686,5.875 65.014,5.371 63.402,4.765 61.838,4.086 58.84,2.783 55.844,1.475 53.209,-0.252 52.445,-0.754 51.51,-1.076 50.838,-1.658 c -0.781,-0.676 -1.695,-1.248 -2.625,-1.77 -1.535,-0.861 -2.815,-1.92 -4.184,-2.91 -0.31,-0.224 -0.597,-0.402 -1.013,-0.203 -0.403,0.195 -0.379,0.482 -0.248,0.793 0.257,0.607 0.742,1.113 1.259,1.586 0.993,0.904 1.725,1.945 2.561,2.926 0.676,0.791 1.324,1.611 1.986,2.41 0.858,1.033 1.531,2.14 2.375,3.174 0.787,0.966 1.137,2.083 1.834,3.074 0.516,0.731 0.963,1.495 1.315,2.266 0.646,1.42 1.242,2.855 1.644,4.342 0.467,1.737 1.035,3.443 0.49,5.227 -0.392,1.28 -1.127,2.374 -2.88,2.789 -1.182,0.28 -2.338,-0.076 -3.477,-0.282 -1.172,-0.212 -2.238,-0.647 -3.289,-1.091 -1.027,-0.432 -2.082,-0.829 -3.066,-1.313 -1.129,-0.551 -2.243,-1.124 -3.35,-1.7 -0.932,-0.484 -1.807,-1.027 -2.715,-1.532 -1.254,-0.698 -2.601,-1.3 -3.783,-2.083 -0.693,-0.46 -1.522,-0.8 -2.217,-1.26 C 29.732,11.642 27.924,10.58 26.084,9.557 24.773,8.827 23.572,8.007 22.416,7.146 20.838,5.97 19.035,5.003 17.416,3.859 15.744,2.678 14.064,1.512 12.557,0.207 12.051,-0.23 11.5,-0.635 10.977,-1.055 10.246,-1.643 9.426,-2.182 8.658,-2.744 7.002,-3.963 5.354,-5.189 3.828,-6.51 3.52,-6.775 3.156,-7.115 2.611,-6.836 c -0.922,0.469 -1.283,1.545 -0.144,2.168 0.371,0.201 0.816,0.32 1.211,0.5 0.968,0.441 1.994,0.799 2.933,1.297 1.602,0.846 3.006,1.85 4.315,2.935 1.207,1.002 2.25,2.11 3.064,3.332 0.34,0.512 0.811,0.963 1.037,1.534 0.205,0.511 0.313,1.038 0.504,1.548 0.334,0.89 0.541,1.776 0.28,2.705 -0.358,1.273 -0.729,2.512 -2.256,3.337 -1.053,0.567 -2.149,1.066 -3.377,1.291 C 8.627,14.094 7.139,13.987 5.742,13.219 4.715,12.654 3.602,12.155 2.678,11.508 0.783,10.183 -1.016,8.769 -2.381,7.073 -3.402,5.804 -4.672,4.633 -4.801,3.027 -4.879,2.041 -5.098,1.064 -4.855,0.072 c 0.195,-0.793 0.189,-1.592 0.044,-2.392 -0.048,-0.276 -0.244,-0.481 -0.543,-0.502 -0.726,-0.053 -1.474,-0.123 -2.189,0.047 -1.74,0.412 -2.205,1.636 -2.814,2.74 -0.461,0.832 -0.288,1.738 -0.243,2.613 0.028,0.547 0.01,1.143 0.502,1.602 0.266,0.246 0.262,0.457 0.018,0.653 -0.262,0.212 -0.531,0.096 -0.807,-0.057 -0.711,-0.393 -0.929,-1.01 -1.228,-1.581 -1.016,-1.927 -1.596,-3.873 -0.237,-5.861 0.551,-0.809 1.172,-1.584 2.114,-2.146 1.652,-0.983 3.627,-1.241 5.64,-1.346 0.762,-0.039 0.754,-0.014 0.729,-0.621 -0.047,-1.196 0.56,-2.104 1.973,-2.659 0.375,-0.148 0.644,-0.39 0.443,-0.72 -0.324,-0.535 -0.658,-1.069 -1.205,-1.506 -0.571,-0.453 -1.071,-0.957 -1.653,-1.399 -1.179,-0.898 -2.052,-2.003 -3.242,-2.888 -1.158,-0.863 -2.131,-1.848 -3.197,-2.772 -1.221,-1.05 -2.334,-2.175 -3.598,-3.203 -1.414,-1.152 -2.773,-2.344 -4.115,-3.543 -0.478,-0.427 -1.01,-0.84 -1.398,-1.304 -1.065,-1.274 -2.239,-2.491 -3.307,-3.762 -0.088,-0.104 -0.189,-0.207 -0.307,-0.291 -0.556,-0.406 -0.962,-0.883 -1.296,-1.414 -0.194,-0.307 -0.434,-0.6 -0.663,-0.895 -0.81,-1.047 -1.877,-1.959 -2.64,-3.029 -0.754,-1.059 -1.658,-2.049 -2.516,-3.055 -0.785,-0.922 -1.596,-1.828 -2.248,-2.81 -0.93,-1.399 -1.912,-2.778 -3.006,-4.1 -1.176,-1.422 -2.185,-2.91 -3.217,-4.392 -0.335,-0.481 -0.613,-0.987 -0.914,-1.483 -0.711,-1.172 -1.714,-2.211 -2.334,-3.439 -0.832,-1.651 -1.947,-3.215 -2.933,-4.819 -0.389,-0.631 -0.666,-1.293 -0.955,-1.955 -0.785,-1.803 -0.951,-3.646 -0.908,-5.519 0.021,-0.975 1.314,-2.409 2.49,-2.705 1.939,-0.491 3.924,-0.315 5.855,-0.045 1.223,0.172 2.365,0.646 3.522,1.05 2.156,0.752 3.953,1.895 5.783,2.995 1.115,0.671 2.205,1.38 3.287,2.089 1.316,0.864 2.551,1.803 3.934,2.606 0.443,0.258 0.673,0.652 1.023,0.969 1.274,1.15 2.703,2.185 4.088,3.256 0.457,0.353 0.906,0.707 1.23,1.142 0.434,0.578 1.163,0.961 1.657,1.514 0.328,0.367 0.759,0.677 1.027,1.099 0.223,0.352 0.355,0.823 1.045,0.858 0.027,0.002 0.082,0.094 0.066,0.111 -0.228,0.242 0.026,0.289 0.223,0.404 0.166,0.094 0.354,0.225 0.291,0.444 -0.018,0.058 0.07,0.144 0.131,0.203 0.59,0.555 0.859,1.26 1.426,1.822 0.939,0.934 1.517,2.029 2.31,3.028 0.446,0.56 1.031,1.097 1.08,1.816 0.01,0.127 0.112,0.289 0.239,0.367 0.269,0.168 0.47,0.373 0.564,0.609 0.416,1.043 1.057,2.008 1.715,2.963 0.463,0.67 0.859,1.364 1.34,2.028 0.504,0.697 0.775,1.492 1.232,2.213 1.219,1.918 2.295,3.884 3.027,5.941 0.37,1.031 0.77,2.064 1.008,3.125 0.256,1.152 0.52,2.305 0.787,3.457 0.237,1.008 0.223,2.039 0.416,3.043 0.268,1.395 0.075,2.773 0.014,4.15 -0.045,1.02 -0.059,2.049 -0.195,3.069 -0.125,0.947 -0.182,1.9 -0.451,2.832 -0.12,0.416 0.013,0.765 0.334,1.088 0.185,0.185 0.4,0.353 0.57,0.547 0.588,0.668 1.433,1.142 2.144,1.716 1.899,1.524 3.754,3.088 5.762,4.522 1.182,0.844 2.256,1.771 3.492,2.572 0.998,0.647 1.889,1.387 2.85,2.067 1.096,0.777 2.266,1.496 3.312,2.31 1.444,1.125 3.102,2.042 4.676,3.04 1.385,0.876 2.86,1.668 4.268,2.525 1.371,0.834 2.638,1.777 4.072,2.537 2.19,1.163 4.322,2.385 6.647,3.402 1.404,0.614 2.765,1.289 4.209,1.851 1.341,0.522 2.683,1.04 4.023,1.563 0.348,0.138 0.717,0.234 1.018,-0.004 0.263,-0.211 0.142,-0.49 0.058,-0.753 C 50.266,16.981 49.879,16.31 49.508,15.63 48.982,14.668 48.49,13.693 48.029,12.71 47.701,12.005 47.098,11.417 46.73,10.724 46.332,9.971 45.703,9.291 45.285,8.542 44.656,7.416 43.895,6.346 43.139,5.271 42.469,4.318 41.77,3.375 41.08,2.428 40.094,1.078 39.023,-0.24 38.221,-1.664 37.523,-2.898 36.705,-4.08 35.846,-5.25 c -0.725,-0.986 -1.428,-1.994 -1.524,-3.152 -0.111,-1.366 0.067,-2.719 0.645,-4.018 0.205,-0.457 0.74,-0.701 1.34,-0.762 0.537,-0.052 1.125,0.086 1.562,0.248 1.606,0.588 3.086,1.358 4.578,2.106 1.623,0.814 3.157,1.723 4.735,2.584 0.89,0.488 1.726,1.039 2.576,1.566 1.299,0.809 2.613,1.608 3.869,2.463 1.262,0.86 2.769,1.479 4.184,2.186 2.189,1.097 4.494,1.996 6.845,2.84 0.76,0.273 1.02,0.152 1.131,-0.493 0.1,-0.572 0.16,-1.148 0.281,-1.716 0.479,-2.221 2.012,-4.096 3.371,-6.018 0.807,-1.141 1.985,-2.029 3.543,-2.586 1.024,-0.367 2.024,-0.787 3.161,-0.898 0.849,-0.082 1.638,-0.346 2.525,-0.375 0.682,-0.022 1.359,-0.024 2.041,-0.014 0.697,0.01 1.375,0.166 2.098,0.059 0.382,-0.057 0.826,-0.067 1.248,0.021 1.156,0.244 2.363,0.518 3.529,0.455 1.881,-0.1 3.615,0.363 5.369,0.658 1.33,0.225 2.703,0.272 4.004,0.61 0.326,0.084 0.68,0.293 0.959,0.259 1.016,-0.119 1.781,0.379 2.596,0.635 1.463,0.461 3.039,0.713 4.404,1.36 0.047,0.023 0.119,0.013 0.178,0.025 1.027,0.215 2.064,0.402 3.043,0.752 1.459,0.519 2.896,1.1 4.445,1.437 0.801,0.176 1.477,0.518 2.211,0.768 1.402,0.48 2.715,1.115 4.09,1.646 1.076,0.416 2.037,0.971 3.152,1.36 1.356,0.474 2.75,0.935 4.004,1.59 1.055,0.552 2.16,1.05 3.242,1.57 -1.244,0.08 -2.408,-0.082 -3.574,-0.344"
             inkscape:connector-curvature="0" /></g></g></g></g></svg>