<?xml version="1.0" encoding="UTF-8" standalone="no"?>
<!-- Generator: Adobe Illustrator 16.0.0, SVG Export Plug-In . SVG Version: 6.00 Build 0)  -->

<svg
   xmlns:dc="http://purl.org/dc/elements/1.1/"
   xmlns:cc="http://creativecommons.org/ns#"
   xmlns:rdf="http://www.w3.org/1999/02/22-rdf-syntax-ns#"
   xmlns:svg="http://www.w3.org/2000/svg"
   xmlns="http://www.w3.org/2000/svg"
   xmlns:sodipodi="http://sodipodi.sourceforge.net/DTD/sodipodi-0.dtd"
   xmlns:inkscape="http://www.inkscape.org/namespaces/inkscape"
   version="1.1"
   id="Layer_1"
   x="0px"
   y="0px"
   width="283.47"
   height="283.46378"
   viewBox="0 0 283.47 283.46376"
   enable-background="new 0 0 841.89 595.28"
   xml:space="preserve"
   inkscape:version="0.91 r13725"
   sodipodi:docname="ikonka_wybierz_katalog.svg"><metadata
     id="metadata77"><rdf:RDF><cc:Work
         rdf:about=""><dc:format>image/svg+xml</dc:format><dc:type
           rdf:resource="http://purl.org/dc/dcmitype/StillImage" /></cc:Work></rdf:RDF></metadata><defs
     id="defs75" /><sodipodi:namedview
     pagecolor="#ffffff"
     bordercolor="#666666"
     borderopacity="1"
     objecttolerance="10"
     gridtolerance="10"
     guidetolerance="10"
     inkscape:pageopacity="0"
     inkscape:pageshadow="2"
     inkscape:window-width="640"
     inkscape:window-height="480"
     id="namedview73"
     showgrid="false"
     inkscape:zoom="0.39645207"
     inkscape:cx="141.73601"
     inkscape:cy="141.73231"
     inkscape:window-x="0"
     inkscape:window-y="0"
     inkscape:window-maximized="0"
     inkscape:current-layer="Layer_1" /><g
     id="g63"
     transform="translate(-279.209,-155.90854)"><path
       d="m 562.666,250.536 c 0,-2.631 -0.48,-3.697 -2.967,-3.69 -1.285,0.007 -2.561,0.007 -3.855,0.007 -0.66,-0.586 -0.975,-1.968 -1.846,-4.956 -7.979,-27.419 -15.979,-54.824 -23.881,-82.271 -0.789,-2.757 -1.9,-3.742 -4.441,-3.717 -15.564,0.142 -31.121,0.05 -46.686,0.05 -15.309,0 -30.611,0.047 -45.928,0 l 0,-0.05 -24.678,0 0,0.05 c -15.158,0.047 -30.318,0 -45.485,0 -15.565,0 -31.122,0.091 -46.687,-0.05 -2.539,-0.024 -3.65,0.96 -4.438,3.717 -7.903,27.448 -15.918,54.852 -23.881,82.271 -0.871,2.988 -1.187,4.37 -1.848,4.956 -1.277,0 -2.569,0 -3.854,-0.007 -2.486,-0.007 -2.975,1.059 -2.975,3.69 0.054,61.673 0.06,123.33 -0.007,184.995 0,0.595 0.03,1.082 0.104,1.526 0,0.578 0,1.217 0,1.945 0.376,0 0.745,0 1.112,0 0.482,0.271 1.143,0.377 2.015,0.37 9.757,-0.212 19.53,-0.249 29.295,-0.249 16.586,0.023 33.181,0.202 49.774,0.172 19.816,-0.03 39.618,-0.271 59.435,-0.314 19.817,0.044 39.633,0.284 59.436,0.314 16.594,0.03 33.186,-0.148 49.773,-0.172 9.766,0 19.539,0.037 29.297,0.249 0.879,0.007 1.523,-0.099 2.014,-0.37 0.367,0 0.734,0 1.111,0 0,-0.729 0,-1.367 0,-1.945 0.074,-0.444 0.104,-0.932 0.104,-1.526 -0.074,-61.666 -0.058,-123.322 -0.013,-184.995 z m -95.658,109.612 c -30.686,0 -61.312,0 -92.133,0 0,-11.529 0,-22.789 0,-34.073 5.16,0 10.133,0 15.272,0 1.546,0.413 1.846,1.504 1.9,4.462 0,3.079 0,6.159 0,9.428 1.532,0 2.561,0.007 3.605,0 8.436,-0.008 16.865,-0.021 25.292,-0.037 8.428,0.016 16.858,0.029 25.292,0.037 1.038,0.007 2.073,0 3.606,0 0,-3.269 0,-6.349 0,-9.428 0.053,-2.958 0.353,-4.049 1.9,-4.462 5.139,0 10.111,0 15.264,0 0.002,11.284 0.002,22.544 0.002,34.073 z M 539.543,246.89 c -24.494,0.04 -48.984,0.03 -73.467,-0.021 -1.006,0 -1.682,0.226 -2.207,0.736 -0.383,0.3 -0.715,0.798 -0.977,1.638 -1.217,4.036 -3.215,6.858 -5.846,8.58 -0.089,0.059 -0.195,0.119 -0.299,0.179 -0.092,0.061 -0.189,0.114 -0.287,0.166 -1.674,0.923 -3.605,1.412 -5.762,1.428 -9.924,0.074 -19.839,0.142 -29.754,0.179 -9.916,-0.037 -19.831,-0.104 -29.762,-0.179 -2.148,-0.016 -4.072,-0.504 -5.762,-1.428 -0.09,-0.051 -0.188,-0.104 -0.278,-0.166 -0.105,-0.06 -0.204,-0.12 -0.301,-0.179 -2.637,-1.722 -4.627,-4.544 -5.844,-8.58 -0.256,-0.84 -0.601,-1.338 -0.977,-1.638 -0.526,-0.51 -1.201,-0.736 -2.208,-0.736 -24.489,0.052 -48.969,0.062 -73.458,0.021 -0.173,-0.021 -0.354,-0.037 -0.549,-0.067 2.614,-8.892 5.048,-17.292 7.535,-25.661 4.5,-15.218 9.127,-30.376 13.468,-45.656 0.94,-3.284 2.307,-4.057 5.079,-4.042 27.892,0.121 55.776,0.084 83.668,0.074 l 18.779,0 c 27.893,0.01 55.777,0.047 83.67,-0.074 2.779,-0.015 4.146,0.759 5.078,4.042 4.342,15.28 8.969,30.438 13.467,45.656 2.488,8.369 4.922,16.769 7.529,25.661 -0.189,0.03 -0.369,0.046 -0.535,0.067 z"
       id="path65"
       inkscape:connector-curvature="0"
       style="clip-rule:evenodd;fill-rule:evenodd" /><path
       d="m 511.854,225.384 c -21.098,0.067 -42.193,0.099 -63.295,0.074 l 0,-0.027 -13.581,0 c -5.858,-0.017 -11.718,-0.03 -17.579,-0.06 -0.345,-0.01 -0.675,0.013 -0.96,0.06 l -4.417,0 c -0.286,-0.047 -0.601,-0.07 -0.962,-0.06 -5.859,0.03 -11.711,0.043 -17.57,0.06 l -11.553,0 0,0.02 c -21.778,0.037 -43.547,0.007 -65.325,-0.067 -2.125,0 -3.086,0.826 -3.552,3.109 -0.376,1.804 -0.962,3.562 -1.638,5.966 7.603,0 14.693,0 21.8,0 16.234,-0.008 32.475,-0.03 48.716,-0.022 l 0,0.03 13.963,0 c 5.086,0.007 10.171,0.03 15.265,0.067 0.345,0 0.632,-0.03 0.91,-0.067 l 4.319,0 c 0.27,0.037 0.563,0.067 0.901,0.067 5.092,-0.038 10.186,-0.06 15.279,-0.067 l 15.985,0 0,-0.03 c 15.566,-0.007 31.129,0.022 46.688,0.022 7.104,0 14.203,0 21.793,0 -0.662,-2.405 -1.248,-4.163 -1.623,-5.966 -0.469,-2.283 -1.43,-3.109 -3.564,-3.109 z"
       id="path67"
       inkscape:connector-curvature="0"
       style="clip-rule:evenodd;fill-rule:evenodd" /><path
       d="m 337.96,213.622 c 15.416,0 30.836,-0.016 46.252,-0.03 l 0,0 66.632,0 0,0 c 13.221,0.014 26.441,0.03 39.662,0.03 6.633,0 13.25,0 20.395,0 -0.518,-1.924 -0.998,-3.14 -1.164,-4.416 -0.494,-3.787 -2.225,-4.771 -5.469,-4.72 -13.191,0.249 -26.383,0.084 -39.574,0.077 -4.61,0 -9.238,0 -13.85,0 l 0,0 -66.632,0 0,0 c -6.806,0 -13.627,0 -20.441,0 -13.19,0.007 -26.389,0.171 -39.58,-0.077 -3.231,-0.051 -4.966,0.933 -5.47,4.72 -0.165,1.276 -0.645,2.492 -1.156,4.416 7.137,0 13.763,0 20.395,0 z"
       id="path69"
       inkscape:connector-curvature="0"
       style="clip-rule:evenodd;fill-rule:evenodd" /><path
       d="m 384.212,192.333 0,0.014 75.269,0 0,0 c 8.535,0 17.084,0 25.617,0 6.34,0 12.68,0 19.592,0 -0.641,-2.291 -1.219,-3.92 -1.533,-5.61 -0.48,-2.591 -1.578,-3.545 -3.938,-3.447 -5.4,0.239 -10.809,0.058 -16.209,0.058 -7.844,0 -15.686,0 -23.529,0 l 0,-0.058 -75.269,0 0,0.075 c -12.921,-0.017 -25.842,-0.017 -38.754,-0.017 -5.401,0 -10.81,0.181 -16.204,-0.058 -2.374,-0.098 -3.47,0.856 -3.944,3.447 -0.315,1.69 -0.894,3.32 -1.533,5.61 6.918,0 13.259,0 19.592,0 13.618,0 27.231,0 40.843,-0.014 z"
       id="path71"
       inkscape:connector-curvature="0"
       style="clip-rule:evenodd;fill-rule:evenodd" /></g></svg>