<?xml version="1.0" encoding="UTF-8" standalone="no"?>
<!-- Generator: Adobe Illustrator 16.0.0, SVG Export Plug-In . SVG Version: 6.00 Build 0)  -->

<svg
   xmlns:dc="http://purl.org/dc/elements/1.1/"
   xmlns:cc="http://creativecommons.org/ns#"
   xmlns:rdf="http://www.w3.org/1999/02/22-rdf-syntax-ns#"
   xmlns:svg="http://www.w3.org/2000/svg"
   xmlns="http://www.w3.org/2000/svg"
   xmlns:sodipodi="http://sodipodi.sourceforge.net/DTD/sodipodi-0.dtd"
   xmlns:inkscape="http://www.inkscape.org/namespaces/inkscape"
   version="1.1"
   id="Layer_1"
   x="0px"
   y="0px"
   width="222.66452"
   height="283.465"
   viewBox="0 0 222.66452 283.46498"
   enable-background="new 0 0 841.89 595.28"
   xml:space="preserve"
   inkscape:version="0.91 r13725"
   sodipodi:docname="ikonka_wybierz_plik.svg"><metadata
     id="metadata90"><rdf:RDF><cc:Work
         rdf:about=""><dc:format>image/svg+xml</dc:format><dc:type
           rdf:resource="http://purl.org/dc/dcmitype/StillImage" /></cc:Work></rdf:RDF></metadata><defs
     id="defs88" /><sodipodi:namedview
     pagecolor="#ffffff"
     bordercolor="#666666"
     borderopacity="1"
     objecttolerance="10"
     gridtolerance="10"
     guidetolerance="10"
     inkscape:pageopacity="0"
     inkscape:pageshadow="2"
     inkscape:window-width="640"
     inkscape:window-height="480"
     id="namedview86"
     showgrid="false"
     inkscape:zoom="0.39645207"
     inkscape:cx="111.33253"
     inkscape:cy="141.73399"
     inkscape:window-x="0"
     inkscape:window-y="0"
     inkscape:window-maximized="0"
     inkscape:current-layer="Layer_1" /><g
     id="g80"
     transform="translate(-309.61247,-155.90902)"><path
       d="m 465.175,156.042 c 0,15.15 0,29.972 0,44.784 0,3.426 -0.053,6.851 0.061,10.277 0.27,8.878 6.113,15.293 14.528,15.414 14.497,0.21 28.995,0.089 43.492,0.113 2.885,0.007 5.763,0 8.819,0 0.083,1.06 0.202,1.855 0.202,2.659 0,64.459 -0.007,128.926 -0.021,193.391 0,8.595 -4.388,14.68 -11.793,16.408 -1.18,0.27 -2.435,0.27 -3.666,0.27 -63.865,0.016 -127.732,0.016 -191.597,0.016 -9.329,0 -15.542,-6.43 -15.557,-16.302 -0.037,-34.915 -0.022,-69.829 -0.03,-104.76 0,-47.323 -0.007,-94.649 0.03,-141.988 0,-3.125 -0.037,-6.371 0.684,-9.345 1.638,-6.625 7.392,-11.056 13.867,-11.056 46.213,-0.017 92.417,-0.017 138.629,-0.008 0.684,-0.001 1.375,0.065 2.352,0.127 z m -44.23,163.809 c 0,-0.008 0,-0.008 0,-0.008 -13.964,0 -27.928,0 -41.9,0 -12.305,0 -24.61,-0.015 -36.906,0.016 -4.8,0.015 -7.129,2.471 -7.196,7.45 -0.023,1.294 0.097,2.602 -0.023,3.892 -0.554,6.304 3.426,8.52 8.128,8.504 47.101,-0.09 94.184,-0.03 141.284,-0.03 5.183,0 10.366,0.075 15.549,-0.037 4.853,-0.113 7.024,-2.554 7.076,-7.609 0.015,-1.578 0.015,-3.14 0,-4.719 -0.031,-4.896 -2.494,-7.458 -7.196,-7.458 -26.263,-10e-4 -52.54,-10e-4 -78.816,-10e-4 z M 420.93,282.12 c -25.991,0 -51.981,-0.046 -77.972,0.075 -2.043,0.016 -4.432,0.737 -6.039,1.999 -2.96,2.313 -3.096,13.251 -0.166,15.63 1.645,1.338 4.116,2.157 6.227,2.157 37.672,0.135 75.351,0.09 113.022,0.09 14.401,0 28.802,0.016 43.201,0 5.386,0 7.746,-2.464 7.753,-8.045 0.007,-1.3 0,-2.592 -0.015,-3.891 -0.031,-5.566 -2.374,-8.015 -7.768,-8.015 -26.081,-0.016 -52.161,-0.008 -78.243,0 z m 0.023,-17.804 c 26.268,0 52.545,0.031 78.813,-0.076 1.713,0 3.719,-0.631 5.07,-1.689 3.396,-2.697 3.23,-14.002 -0.315,-16.415 -1.683,-1.15 -4.115,-1.501 -6.204,-1.501 -32.857,-0.091 -65.722,-0.076 -98.57,-0.076 -19.08,0 -38.137,-0.053 -57.21,0.097 -1.938,0.007 -4.222,0.774 -5.731,2.022 -2.832,2.344 -2.915,13.069 -0.113,15.475 1.48,1.277 3.786,2.072 5.709,2.072 26.187,0.136 52.372,0.099 78.551,0.091 z m -21.1,112.932 c 0,-0.016 0,-0.016 0,-0.021 18.352,0 36.716,-0.188 55.061,0.082 8.098,0.105 10.854,-1.592 10.41,-11.118 -0.3,-6.489 -2.027,-8.639 -8.195,-8.639 -27.665,0 -55.338,0 -82.998,0 -10.366,0 -20.739,-0.007 -31.099,0 -6.122,0 -8.098,2.051 -8.098,8.399 0,1.014 0.091,2.044 0,3.049 -0.563,5.98 3.222,8.354 7.993,8.309 18.976,-0.165 37.951,-0.061 56.926,-0.061 z m -15.52,-150.612 c 13.596,0 27.208,0 40.803,0 6.31,0 8.42,-2.215 8.429,-8.766 0,-1.104 0.014,-2.216 -0.009,-3.328 -0.066,-4.951 -2.485,-7.557 -7.136,-7.572 -10.967,-0.031 -21.934,-0.015 -32.909,-0.015 -17.284,0 -34.576,-0.016 -51.861,0.015 -4.267,0.015 -6.656,2.592 -6.701,7.053 -0.007,1.57 -0.015,3.148 -0.015,4.718 0.015,5.566 2.208,7.88 7.542,7.888 13.943,0.016 27.901,0.007 41.857,0.007 z"
       id="path82"
       inkscape:connector-curvature="0"
       style="clip-rule:evenodd;fill-rule:evenodd" /><path
       d="m 473.205,156.071 c 19.44,20.905 38.858,41.781 58.27,62.647 0.195,-0.105 0.397,-0.224 0.586,-0.33 -0.827,0.03 -1.668,0.106 -2.51,0.106 -13.003,0.015 -26.005,0.044 -39.008,0 -2.081,-0.015 -4.229,-0.196 -6.258,-0.708 -7.114,-1.742 -11.103,-6.519 -11.321,-15.278 -0.383,-15.265 -0.128,-30.558 -0.112,-45.837 0,-0.15 0.165,-0.299 0.353,-0.6 z"
       id="path84"
       inkscape:connector-curvature="0"
       style="clip-rule:evenodd;fill-rule:evenodd" /></g></svg>