<?xml version="1.0" encoding="UTF-8" standalone="no"?>
<!-- Generator: Adobe Illustrator 16.0.0, SVG Export Plug-In . SVG Version: 6.00 Build 0)  -->

<svg
   xmlns:dc="http://purl.org/dc/elements/1.1/"
   xmlns:cc="http://creativecommons.org/ns#"
   xmlns:rdf="http://www.w3.org/1999/02/22-rdf-syntax-ns#"
   xmlns:svg="http://www.w3.org/2000/svg"
   xmlns="http://www.w3.org/2000/svg"
   xmlns:sodipodi="http://sodipodi.sourceforge.net/DTD/sodipodi-0.dtd"
   xmlns:inkscape="http://www.inkscape.org/namespaces/inkscape"
   version="1.1"
   id="Layer_1"
   x="0px"
   y="0px"
   width="342.95801"
   height="283.46457"
   viewBox="0 0 342.958 283.46456"
   enable-background="new 0 0 841.89 595.28"
   xml:space="preserve"
   inkscape:version="0.91 r13725"
   sodipodi:docname="ikonka_timestamp.svg"><metadata
     id="metadata31"><rdf:RDF><cc:Work
         rdf:about=""><dc:format>image/svg+xml</dc:format><dc:type
           rdf:resource="http://purl.org/dc/dcmitype/StillImage" /></cc:Work></rdf:RDF></metadata><defs
     id="defs29" /><sodipodi:namedview
     pagecolor="#ffffff"
     bordercolor="#666666"
     borderopacity="1"
     objecttolerance="10"
     gridtolerance="10"
     guidetolerance="10"
     inkscape:pageopacity="0"
     inkscape:pageshadow="2"
     inkscape:window-width="640"
     inkscape:window-height="480"
     id="namedview27"
     showgrid="false"
     inkscape:zoom="0.39645207"
     inkscape:cx="171.47801"
     inkscape:cy="141.73199"
     inkscape:window-x="0"
     inkscape:window-y="0"
     inkscape:window-maximized="0"
     inkscape:current-layer="Layer_1" /><g
     id="g3"
     transform="translate(-249.467,-155.90744)"><path
       d="m 309.866,323.265 c 1.818,0.552 3.027,1.348 1.008,3.336 -1.763,-0.568 -1.562,-1.89 -1.008,-3.336 z"
       id="path5"
       inkscape:connector-curvature="0"
       style="clip-rule:evenodd;fill:#36322b;fill-rule:evenodd" /><g
       id="g7"><path
         d="m 425.2,438.762 c 0.15,0.1 0.306,0.213 0.463,0.313 0.155,0.084 0.319,0.197 0.477,0.297 -0.157,-0.1 -0.308,-0.213 -0.462,-0.313 -0.158,-0.097 -0.321,-0.198 -0.478,-0.297 z"
         id="path9"
         inkscape:connector-curvature="0"
         style="clip-rule:evenodd;fill-rule:evenodd" /><path
         d="m 584.751,275.767 -0.344,-0.227 -0.007,0 c 0,0.013 -0.005,0.026 -0.005,0.042 l 0.356,0.185 z"
         id="path11"
         inkscape:connector-curvature="0"
         style="clip-rule:evenodd;fill-rule:evenodd" /><path
         d="m 592.041,264.454 c -1.3,-0.1 -2.786,-2.203 -3.866,-0.128 -2.104,4.051 -3.495,6.823 -7.846,1.706 -3.112,-3.637 -3.503,2.459 -3.366,3.327 1.073,6.479 -2.382,8.682 -6.888,10.202 -3.089,4.095 -6.784,7.307 -10.763,10.105 3.979,-2.798 7.674,-6.011 10.763,-10.105 -0.375,-0.667 -0.761,-1.32 -1.144,-1.989 -1.293,0.542 -2.53,0.797 -3.723,0.839 1.188,-0.042 2.43,-0.297 3.723,-0.839 -0.591,-1.192 -1.166,-2.4 -1.756,-3.595 -0.297,-3.61 -0.673,-7.234 -4.767,-7.858 -2.644,-0.398 -4.163,0.952 -4.135,4.092 -1.466,-0.028 -2.948,-0.055 -4.437,-0.099 -0.396,0.284 -0.794,0.568 -1.206,0.867 0.938,1.038 1.889,2.062 2.828,3.098 -0.157,2.132 1.115,4.334 -0.214,6.409 -0.007,0.583 0.52,1.067 0.937,1.494 -0.417,-0.427 -0.943,-0.911 -0.937,-1.494 -3.595,-0.255 -6.425,-3.837 -10.289,-2.942 -0.015,6.068 4.441,4.194 7.298,5.16 -3.234,4.847 3.916,5.669 2.984,9.634 -1.414,1.18 -2.836,2.345 -4.249,3.525 -1.144,-0.625 -2.297,-1.25 -3.432,-1.861 -0.357,-0.539 -0.717,-1.094 -1.083,-1.648 -0.118,-0.57 -0.239,-1.138 -0.369,-1.734 -1.171,-1.293 -2.43,-3.269 -2.983,0.468 0.15,0.995 0.299,2.005 0.439,2.999 l -0.013,0.058 c -2.957,0.213 -3.226,4.803 -6.298,4.832 -0.277,0.086 -0.554,0.086 -0.835,0.014 -0.52,0.654 -1.052,1.306 -1.564,1.962 -0.017,0.497 -0.112,0.979 -0.298,1.447 0.186,-0.468 0.281,-0.95 0.291,-1.447 0.52,-0.656 1.052,-1.309 1.571,-1.962 -0.59,-0.625 -1.175,-1.25 -1.765,-1.862 -3.389,-0.724 -6.678,-2.203 -10.231,-1.521 0.156,-1.138 -0.59,-1.223 -1.319,-1.322 0.408,0.44 0.821,0.896 1.24,1.335 -0.005,0 -0.005,0 -0.005,0 0.907,4.675 4.816,9.708 -1.294,13.545 -1.024,1.022 -2.062,2.033 -3.097,3.04 2.002,6.667 5.98,0.229 8.765,1.635 -6.92,7.489 -14.152,14.481 -23.397,18.249 -0.149,2.202 -1.768,2.999 -3.106,4.077 1.339,-1.078 2.957,-1.89 3.106,-4.077 -0.008,0 -0.193,-0.213 -0.193,-0.213 0.548,-3.115 0.355,-6.184 -0.447,-9.224 -2.766,-1.294 -5.535,-2.601 -8.292,-3.908 -2.429,-0.526 -4.845,-1.052 -7.27,-1.593 -0.035,3.824 2.636,5.017 5.103,5.785 5.393,1.662 6.062,4.305 2.167,8.754 -0.784,0.896 -1.059,2.359 -1.563,3.554 -1.571,1.435 -1.414,3.366 -1.224,5.3 -1.284,4.007 -3.822,6.594 -7.332,8.103 -1.741,2.329 -3.638,4.433 -5.772,6.167 2.135,-1.734 4.031,-3.838 5.772,-6.184 -1.052,-0.61 -2.104,-1.222 -3.155,-1.847 0,-0.554 0,-1.095 0,-1.648 -1.684,-1.875 -3.418,-3.71 -5.037,-5.63 -2.878,-3.365 -6.645,-6.977 -11.335,-2.556 0.135,0.439 0.229,0.896 0.271,1.377 3.948,0.073 7.324,2.332 9.23,5.558 1.442,2.459 -2.174,4.08 -3.532,6.082 -0.569,0.998 -1.138,2.003 -1.698,2.998 -0.434,-0.057 -0.845,0.045 -1.23,0.271 -6.047,0.683 -10.005,-4.008 -14.594,-7.078 -1.052,-0.084 -2.118,-0.169 -3.184,-0.254 -2.324,1.619 -3.943,2.714 -0.81,5.97 5.427,5.669 11.604,7.262 18.622,6.508 1.28,6.552 -4.718,6.65 -7.07,9.991 -0.554,1.08 -1.105,2.174 -1.659,3.254 0.554,-1.08 1.105,-2.174 1.659,-3.254 -1.066,-0.059 -2.131,-0.115 -3.196,-0.169 1.059,-2.761 2.786,-5.871 -1.778,-6.554 -2.08,-0.312 -4.93,-0.682 -5.235,2.644 -0.448,4.731 3.027,3.795 5.564,3.964 0.469,0.045 0.96,-0.014 1.449,-0.04 -0.044,0.993 -0.079,1.986 -0.105,2.981 -2.985,1.565 -5.108,4.834 -8.594,5.416 -2.023,-2.785 -4.057,-5.571 -6.082,-8.357 -1.57,-3.479 -4.561,-4.859 -7.445,-6.409 -0.158,-2.018 -0.271,-4.105 -2.785,-2.002 -1.479,0.042 -2.958,0.112 -4.423,0.157 -0.568,-0.57 -1.122,-1.139 -1.677,-1.709 -0.835,-4.334 -4.376,-4.845 -7.212,-6.336 -2.337,0.896 -7.204,-6.923 -7.041,2.557 1.158,0.34 2.312,0.669 3.469,0.994 1.873,2.36 4.07,3.229 6.415,3.313 -2.345,-0.084 -4.542,-0.952 -6.415,-3.313 -1.157,-0.325 -2.311,-0.654 -3.469,-0.994 -1.064,5.599 1.236,7.448 5.963,7.091 3.638,-0.283 7.365,-0.424 10.039,3.257 3.334,2.416 6.237,5.613 10.12,7.033 0.028,0.953 0.048,1.904 0.083,2.856 0.7,0.115 1.552,-0.128 2.331,-0.226 -0.779,0.098 -1.631,0.341 -2.331,0.226 -2.926,2.232 -5.827,4.463 -8.745,6.693 -2.99,0.37 -6.274,-1.192 -8.918,1.593 -2.923,-2.345 -5.84,-4.705 -8.755,-7.049 -5.002,1.705 -6.11,3.979 -1.052,7.546 1.571,1.095 2.785,2.828 4.165,4.264 1.39,0.668 2.776,1.336 4.172,2.006 2.99,3.196 7.693,-0.387 10.553,3.353 3.216,-2.246 6.549,-4.307 9.676,-6.681 -3.127,2.374 -6.46,4.435 -9.664,6.681 -3.026,3.339 -6.354,6.197 -10.09,8.456 -1.466,2.202 -3.411,3.779 -5.399,5.301 1.988,-1.521 3.934,-3.099 5.399,-5.301 -2.011,-0.028 -4.008,-0.059 -6.012,-0.072 l 0,0 c 0.027,-0.355 0.129,-0.681 0.326,-0.965 0.45,-3.441 2.681,-7.405 -2.174,-9.28 -2.645,-1.948 -5.287,-3.881 -7.938,-5.813 -0.796,-0.202 -1.584,-0.399 -2.385,-0.597 -0.462,-0.271 -0.92,-0.54 -1.387,-0.813 -0.995,0.158 -1.984,0.315 -2.979,0.472 l 0,0.013 c -0.092,-0.967 -0.19,-1.918 -0.283,-2.871 -0.952,-1.122 -1.912,-2.244 -2.862,-3.367 -4.831,-2.672 -7.533,-10.915 -14.839,-7.065 -3.493,-0.751 -2.499,-3.807 -2.592,-6.294 1.392,-1.352 3.688,-2.062 2.827,-4.975 0.021,0 0.052,0 0.064,0 0,-0.028 0.013,-0.057 0.013,-0.099 2.632,0.555 4.89,-0.923 7.305,-1.619 1.038,0.58 3.952,-0.386 2.744,2.075 -2.977,6.066 0.867,7.686 4.306,9.876 3.555,3.296 7.12,6.578 12.038,2.927 -0.995,-1.549 -2.005,-3.07 -2.999,-4.619 -0.207,-4.078 -2.301,-4.86 -5.399,-3.879 -0.057,-0.981 -0.108,-1.963 -0.158,-2.941 4.387,0.369 7.173,-1.975 8.712,-6.438 1.906,-1.762 6.062,-2.332 2.856,-6.794 1.017,-2.131 2.02,-4.264 3.027,-6.409 0.325,-0.341 0.726,-0.484 1.166,-0.411 0.931,-2.416 5.528,-3.652 3.07,-6.836 -2.898,-3.767 -4.223,1.507 -6.247,2.741 -6.187,3.738 -12.313,7.619 -18.46,11.429 -0.484,0.765 -1.017,1.421 -1.686,1.859 0.669,-0.438 1.201,-1.095 1.686,-1.859 -0.563,-0.214 -1.118,-0.428 -1.673,-0.641 -1.574,0.34 -4.197,-0.07 -1.788,3.126 -0.774,0.271 -1.542,0.568 -2.308,0.839 -1.052,3.537 -6.014,3.126 -6.192,7.547 0.179,-4.421 5.141,-4.01 6.192,-7.547 -2.033,-0.141 -4.06,-0.271 -6.091,-0.413 -0.527,-0.043 -1.052,-0.085 -1.579,-0.142 -0.518,2.716 -1.037,5.414 -1.55,8.115 -3.375,0.454 -6.741,0.911 -10.109,1.365 -1.891,1.619 -1.7,4.035 -1.912,6.295 0.197,0.924 0.397,1.832 0.598,2.743 l 0,0 c -0.2,-0.911 -0.4,-1.819 -0.598,-2.743 -8.44,3.555 -15.617,9.678 -23.492,14.396 -3.949,2.358 -6.281,5.842 -6.053,11.071 0.246,2.26 1.275,3.838 3.252,4.547 0.611,1.065 1.224,2.147 1.835,3.226 1.342,1.238 2.671,2.487 4.021,3.739 1.422,1.122 2.843,2.244 4.265,3.382 0.083,5.315 5.705,4.691 7.232,8.471 1.421,0.597 2.857,1.179 4.284,1.776 0.519,0.595 1.038,1.207 1.563,1.79 0.604,0.484 1.201,0.938 1.811,1.422 1.85,2.999 4.251,5.202 7.378,6.351 5.045,9.582 12.506,9.609 20.751,6.554 0.765,-0.199 1.526,-0.398 2.301,-0.584 0.873,-5.939 5.549,-7.305 9.351,-9.706 1.826,0.072 2.869,-0.896 3.146,-2.897 l 0.009,0 c 1.933,0.127 2.9,-1.75 4.335,-2.602 6.798,-4.022 11.001,-12.35 19.015,-14.313 3.078,-1.208 3.405,-6.195 7.151,-6.494 5.925,-7.915 14.578,-12.064 21.073,-19.172 1.024,-1.122 2.004,-2.301 3.005,-3.454 5.765,-2.429 9.188,-9.094 15.429,-10.646 l 0.127,0.059 c 2.244,0.469 3.235,-0.74 3.327,-3.127 l 0.255,-0.326 0.369,0.042 c 6.369,0.641 8.854,-4.235 10.972,-9.635 0,0 -0.014,0.013 -0.022,0.013 1.742,-4.731 6.716,-5.583 9.131,-9.52 5.586,-2.133 8.762,-8.57 14.619,-10.205 3.85,-3.283 7.7,-6.565 11.553,-9.835 9.169,-1.976 15.101,-9.01 20.672,-16.57 l 0,0.014 c 2.132,0.271 3.055,-0.938 3.097,-3.212 8.371,-7.105 15.953,-15.461 25.739,-20.322 l 0.342,0.112 c -0.078,-2.301 1.137,-3.111 2.977,-3.197 -0.007,0 0.383,0.54 0.383,0.54 l -0.361,-0.568 c 0.042,-2.289 1.294,-3.041 3.104,-3.111 0.179,-2.161 1.479,-2.929 3.19,-3.171 1.442,-1.59 2.895,-3.183 4.336,-4.79 0.164,-0.51 0.334,-1.036 0.498,-1.562 -0.129,-0.529 -0.25,-1.055 -0.384,-1.567 z m -184.016,80.724 c -0.966,0.156 -1.861,0.425 -2.699,0.795 0.838,-0.37 1.734,-0.639 2.699,-0.795 z m -8.518,20.946 0,0 c -1.059,0.172 -1.913,0.583 -2.538,1.252 0.625,-0.669 1.479,-1.08 2.538,-1.252 z m -28.318,51.576 0,0 c -0.597,-0.981 -1.201,-1.946 -1.798,-2.913 -0.818,-0.229 -1.629,-0.439 -2.45,-0.653 0.821,0.214 1.632,0.425 2.45,0.639 0.058,-1.663 -0.405,-2.828 -2.116,-2.845 l 0.004,0 c 0.009,-0.012 0.031,-0.11 0.031,-0.11 -0.656,-0.244 -1.315,-0.484 -1.976,-0.74 -0.472,-0.041 -0.938,-0.114 -1.408,-0.213 -0.172,-0.439 -0.234,-0.91 -0.192,-1.394 -0.07,-6.396 -5.236,-6.24 -8.604,-8.385 L 355.047,401 c -4.841,-3.012 -10.021,-5.642 -11.235,-12.675 2.741,-3.099 6.146,-5.062 9.598,-6.935 1.344,0.026 2.693,0.07 4.044,0.11 -1.484,4.407 -2.444,8.771 0.619,12.891 l -0.017,0 c -0.025,2.331 0.956,3.453 3.072,3.199 -0.413,2.657 0.745,2.854 2.557,2.003 1.628,2.033 3.96,1.322 5.956,1.92 0.179,1.774 1.052,2.798 2.643,3.026 4.619,11.881 13.962,13.304 23.876,13.46 0.07,1.69 -0.057,3.466 1.471,4.573 -11.499,8.842 -11.499,8.842 -26.442,-4.872 z m 19.115,-6.553 c -1.436,-5.157 -5.685,-7.588 -8.712,-11.199 -1.521,-1.804 -2.387,0.029 -3.098,1.437 -0.959,-0.099 -1.919,-0.2 -2.872,-0.299 -0.483,-4.448 1.878,-11.228 -6.204,-9.422 0.293,1.463 1.707,2.914 2.565,4.363 -0.858,-1.449 -2.272,-2.9 -2.569,-4.363 l 0,-0.043 c 1.563,-4.875 9.007,-6.85 5.539,-14.17 l 0.217,-0.211 c 0.189,-1.352 0.383,-2.715 0.567,-4.066 1.946,0.497 3.907,0.995 5.854,1.492 2.546,2.858 5.551,4.945 8.776,6.666 0.591,1.007 1.181,2.019 1.756,3.014 2.742,-1.122 4.336,2.998 7.047,1.946 0.698,1.421 1.365,2.842 2.075,4.235 1.875,3.779 7.134,4.179 7.561,9.252 0.137,1.562 -16.087,11.257 -18.502,11.368 z M 472.223,354.5 c -0.221,1.636 -1.431,3.966 0.325,4.134 -1.756,-0.168 -0.554,-2.498 -0.325,-4.134 z m 56.603,-40.73 c 0.909,-3.61 2.409,-6.721 5.786,-8.101 -3.377,1.393 -4.877,4.49 -5.786,8.101 z"
         id="path13"
         inkscape:connector-curvature="0"
         style="clip-rule:evenodd;fill-rule:evenodd" /><path
         d="m 431.546,330.383 c 0.169,0.598 0.354,1.209 0.526,1.805 -0.221,2.146 -0.449,4.292 -0.67,6.439 l 0.052,0.097 c 0.15,1.55 0.662,2.716 2.247,2.786 4.817,0.64 8.49,6.808 14.09,3.64 -0.654,-2.829 -1.818,-5.174 -4.507,-6.142 -2.6,0.129 -4.931,-0.937 -5.224,-3.878 -0.254,-2.503 2.39,-2.885 3.975,-3.879 1.422,-0.868 2.886,-1.664 4.321,-2.49 0.98,-0.141 1.96,-0.268 2.939,-0.397 1.14,0 2.19,0.242 3.17,0.642 -0.979,-0.399 -2.03,-0.642 -3.17,-0.642 -0.973,10.135 6.028,5.928 10.077,7.021 0.07,-0.61 0.12,-1.222 0.185,-1.819 1.363,-0.228 3.283,0.583 3.923,-1.179 0.676,-1.892 -1.108,-2.701 -2.259,-3.596 -4.477,-3.496 -9.353,-5.501 -14.909,-4.932 -1.15,-0.043 -2.311,-0.099 -3.454,-0.144 2.517,-4.703 7.526,-2.399 10.844,-4.859 1.416,0.484 2.828,0.966 4.249,1.45 2.02,0.013 4.05,0.041 6.068,0.057 2.219,-8.215 7.208,-9.905 14.724,-5.003 0.277,2.403 1.378,3.41 3.538,2.687 1.692,-0.354 3.397,-0.683 5.09,-1.023 0.144,-2.444 -1.833,-3.254 -2.885,-4.774 -2.301,-0.27 -4.123,-1.679 -5.905,-3.17 -3.516,-0.781 -7.298,1.038 -11.321,-1.62 2.916,-3.453 6.495,-4.959 9.836,-6.849 0.975,-0.57 1.935,-1.153 2.906,-1.734 0.476,-0.612 0.915,-1.294 1.457,-1.835 4.3,-4.249 6.565,4.449 9.293,2.374 2.786,-2.104 4.108,-6.693 8.551,-3.709 1.954,0.044 3.899,0.086 5.849,0.144 5.371,1.392 10.209,0.994 13.315,-5.074 -0.547,-0.468 -1.083,-0.939 -1.619,-1.393 -2.055,-0.781 -5.949,0.867 -5.501,-3.282 0.375,-3.624 3.453,-4.506 6.764,-3.895 2.941,0.554 5.777,1.109 8.137,3.311 1.258,0.014 2.537,0.014 3.803,0.029 -0.221,-4.235 -4.294,-3.554 -6.012,-5.871 -1.409,-2.374 -8.783,-0.296 -4.221,-7.104 5.334,-6.963 7.95,-0.924 11.042,2.898 0.439,-0.099 0.88,-0.042 1.306,0.157 2.8,0.726 5.606,1.45 8.407,2.176 0.391,-0.57 0.781,-1.124 1.173,-1.679 -2.005,-2.7 -8.308,-2.216 -6.692,-6.565 1.887,-5.132 6.217,-0.271 9.319,0.512 2.156,0.554 4.207,0.794 6.346,0.794 -0.759,-4.704 -5.663,-3.069 -7.51,-6.123 0,0 0.498,-0.569 0.491,-0.569 1.813,-0.256 3.901,0.938 5.338,-1.278 -4.704,-2.091 0.409,-3.397 0.326,-5.116 -2.148,-1.436 -2.373,-5.701 -5.955,-5.003 -0.761,0.141 -1.522,0.299 -2.287,0.44 -8.777,7.76 -19.018,12.749 -28.568,19.059 -2.258,1.492 -4.729,2.559 -7.105,3.822 -12.106,10.077 -26.092,16.585 -38.669,25.768 -1.223,0.88 -2.674,1.322 -3.24,3.027 l 0,0 c -3.915,0.411 -6.422,4.873 -10.575,4.618 -6.087,7.148 -14.694,10.004 -21.551,15.832 -2.127,1.786 -4.983,3.519 0.132,5.041 z"
         id="path15"
         inkscape:connector-curvature="0"
         style="clip-rule:evenodd;fill-rule:evenodd" /><path
         d="m 468.166,328.704 c 2.477,1.836 2.876,-1.162 3.075,-3.296 -2.402,-1.676 -4.81,-3.353 -7.222,-5.045 -2.019,-0.016 -4.049,-0.044 -6.068,-0.057 2.078,4.762 6.709,5.813 10.215,8.398 z"
         id="path17"
         inkscape:connector-curvature="0"
         style="clip-rule:evenodd;fill-rule:evenodd" /><path
         d="m 475.013,329.913 c -0.539,1.649 1.13,2.09 2.031,2.829 2.503,2.032 5.054,3.993 7.597,5.981 2.026,-0.439 4.854,-0.04 5.232,-2.981 0.383,-2.93 -2.751,-2.162 -4.181,-3.256 -2.13,-1.634 -4.604,-2.7 -6.939,-4.009 -1.316,0.3 -3.136,-0.381 -3.74,1.436 z"
         id="path19"
         inkscape:connector-curvature="0"
         style="clip-rule:evenodd;fill-rule:evenodd" /><path
         d="m 402.157,384.073 c 0.467,0.272 0.925,0.542 1.387,0.813 -0.194,-0.838 -0.59,-1.265 -1.387,-0.813 z"
         id="path21"
         inkscape:connector-curvature="0"
         style="clip-rule:evenodd;fill-rule:evenodd" /></g><polygon
       points="487.021,170.941 486.52,224.108 333.946,370.202 322.443,284.351 "
       id="polygon23" /><path
       d="m 485.268,163.353 c -0.896,-3.299 -3.598,-3.185 -5.925,-3.455 -3.341,-0.398 -6.711,-0.526 -10.064,-0.768 -1.945,0.242 -3.908,0.497 -5.854,0.74 -2.764,-2.388 -5.543,-2.047 -8.315,-1.323 l -0.778,-1.989 -66.343,32.872 c -0.824,0 -1.662,-0.042 -2.542,-0.213 -0.705,0.824 -1.381,1.678 -2.091,2.501 l -27.508,13.63 c 0,0 -21.614,0.127 -53.69,-38.315 -28.019,-33.584 -52.691,17.366 -52.691,40.814 0,17.423 31.407,22.726 44.838,29.276 l -35.636,16.372 -4.711,1.606 20.381,74.555 c 0.198,1.023 0.404,2.033 0.611,3.04 0.383,1.038 0.738,2.077 1.065,3.142 l 1.721,6.254 c 1.291,5.443 2.199,11.015 3.251,16.528 0.925,4.804 2.817,8.172 6.951,10.633 9.906,5.883 20.182,10.756 30.698,15.005 4.724,1.906 9.054,1.507 10.523,-5.301 -3.546,-0.07 -4.058,-2.756 -4.541,-5.981 -3.197,-20.864 -6.538,-41.698 -9.842,-62.534 -1.398,-8.838 -2.806,-17.678 -4.258,-26.504 -0.498,-3.098 -0.759,-6.04 2.474,-7.588 0.043,-0.414 0.127,-0.825 0.242,-1.208 9.936,-3.512 17.799,-11.257 26.86,-16.585 13.956,-8.2 27.423,-17.411 41.093,-26.179 -0.05,-0.016 -0.092,-0.016 -0.142,-0.016 0.531,-0.596 1.073,-1.192 1.605,-1.789 9.089,-3.027 16.8,-9.096 24.951,-14.17 24.038,-14.966 47.99,-30.057 71.982,-45.123 0.517,-0.526 0.979,-1.179 1.575,-1.577 2.21,-1.461 5.203,-2.328 4.11,-6.35 z"
       id="path25"
       inkscape:connector-curvature="0" /></g></svg>