<?xml version="1.0" encoding="UTF-8" standalone="no"?>
<!-- Generator: Adobe Illustrator 16.0.0, SVG Export Plug-In . SVG Version: 6.00 Build 0)  -->

<svg
   xmlns:dc="http://purl.org/dc/elements/1.1/"
   xmlns:cc="http://creativecommons.org/ns#"
   xmlns:rdf="http://www.w3.org/1999/02/22-rdf-syntax-ns#"
   xmlns:svg="http://www.w3.org/2000/svg"
   xmlns="http://www.w3.org/2000/svg"
   xmlns:sodipodi="http://sodipodi.sourceforge.net/DTD/sodipodi-0.dtd"
   xmlns:inkscape="http://www.inkscape.org/namespaces/inkscape"
   version="1.1"
   id="Layer_1"
   x="0px"
   y="0px"
   width="310.39618"
   height="283.465"
   viewBox="0 0 310.39617 283.46498"
   enable-background="new 0 0 841.89 595.28"
   xml:space="preserve"
   inkscape:version="0.91 r13725"
   sodipodi:docname="ikonka_weryfikuj.svg"><metadata
     id="metadata60"><rdf:RDF><cc:Work
         rdf:about=""><dc:format>image/svg+xml</dc:format><dc:type
           rdf:resource="http://purl.org/dc/dcmitype/StillImage" /></cc:Work></rdf:RDF></metadata><defs
     id="defs58" /><sodipodi:namedview
     pagecolor="#ffffff"
     bordercolor="#666666"
     borderopacity="1"
     objecttolerance="10"
     gridtolerance="10"
     guidetolerance="10"
     inkscape:pageopacity="0"
     inkscape:pageshadow="2"
     inkscape:window-width="640"
     inkscape:window-height="480"
     id="namedview56"
     showgrid="false"
     inkscape:zoom="0.39645207"
     inkscape:cx="155.19801"
     inkscape:cy="141.73199"
     inkscape:window-x="0"
     inkscape:window-y="0"
     inkscape:window-maximized="0"
     inkscape:current-layer="Layer_1" /><g
     id="g34"
     transform="translate(-265.747,-155.907)"><g
       id="g36"><path
         d="m 403.853,354.575 c -36.606,-19.623 -54.029,-69.789 -38.925,-112.066 15.116,-42.264 57.036,-60.606 93.642,-40.986 36.599,19.621 54.026,69.787 38.912,112.064 -15.107,42.265 -57.024,60.624 -93.629,40.988 z"
         id="path38"
         inkscape:connector-curvature="0" /><path
         d="m 410.379,336.306 c -27.856,-14.936 -41.121,-53.14 -29.628,-85.31 11.509,-32.166 43.426,-46.139 71.29,-31.188 27.854,14.935 41.123,53.11 29.623,85.292 -11.503,32.168 -43.414,46.139 -71.285,31.206 z"
         id="path40"
         inkscape:connector-curvature="0"
         style="fill:#ffffff" /><polygon
         points="352.311,365.783 341.99,351.029 376.29,318.292 386.626,333.062 "
         id="polygon42" /><polygon
         points="287.742,439.372 265.747,407.04 336.235,341.849 358.23,374.211 "
         id="polygon44" /></g><path
       d="m 525.375,336.785 c -0.749,0.091 -1.504,0.182 -2.253,0.256 -0.302,-0.27 -0.66,-0.722 -0.167,-0.96 0.889,-0.435 1.789,-0.317 2.42,0.704 z"
       id="path46"
       inkscape:connector-curvature="0"
       style="clip-rule:evenodd;fill-rule:evenodd" /><path
       d="m 524.552,310.765 c -0.289,-0.015 -0.56,-0.031 -0.829,-0.031 0.145,-0.404 0.278,-0.813 0.422,-1.202 0.133,0.406 0.262,0.811 0.407,1.233 z"
       id="path48"
       inkscape:connector-curvature="0"
       style="clip-rule:evenodd;fill:#67686a;fill-rule:evenodd" /><path
       d="m 517.824,219.942 c 0.279,0 0.549,0 0.828,0 -0.279,0.572 -0.548,0.556 -0.828,0 z"
       id="path50"
       inkscape:connector-curvature="0"
       style="clip-rule:evenodd;fill:#67686a;fill-rule:evenodd" /><path
       d="m 458.989,238.829 c -0.26,0.779 -0.577,2.072 -1.103,3.198 -11.869,25.633 -23.739,51.233 -35.64,76.818 -2.824,6.056 -7.076,6.597 -10.56,1.188 -6.207,-9.631 -12.268,-19.395 -18.315,-29.163 -2.465,-3.981 -2.271,-7.421 0.496,-9.599 3.298,-2.57 5.815,-0.902 7.896,2.419 3.754,5.994 7.504,11.989 11.244,17.998 2.857,4.613 3.215,4.644 5.471,-0.241 10.005,-21.514 19.95,-43.089 29.927,-64.62 2.275,-4.896 4.943,-6.128 8.062,-3.935 1.75,1.249 2.441,3.112 2.522,5.937 z"
       id="path52"
       inkscape:connector-curvature="0"
       style="clip-rule:evenodd;fill-rule:evenodd" /><path
       d="m 576.058,277.997 c 0,38.987 -0.05,77.958 0.085,116.947 0.014,4.071 -0.745,5.291 -4.341,5.273 -59.454,-0.148 -118.901,-0.148 -178.363,-0.015 -3.425,0.015 -4.529,-0.871 -4.393,-5.153 0.3,-9.3 0.239,-18.659 0,-27.959 -0.113,-4.343 0.794,-4.885 3.847,-2.841 11.708,7.827 24.474,11.389 37.77,11.345 40.701,-0.182 73.902,-34.376 80.146,-81.011 6.799,-50.768 -20.268,-97.705 -62.073,-109.15 -19.531,-5.351 -38.356,-2.075 -56.098,8.999 -2.901,1.816 -3.653,1.727 -3.591,-2.42 0.186,-10.488 0.149,-21.003 0,-31.476 -0.054,-3.485 0.879,-4.612 3.83,-4.598 59.88,0.09 119.751,0.104 179.631,-0.031 3.644,0 3.605,2.015 3.605,5.139 -0.055,38.989 -0.03,77.976 -0.03,116.95 -10e-4,0.001 -0.016,0.001 -0.025,0.001 z m -50.683,58.788 c -0.631,-1.021 -1.531,-1.14 -2.42,-0.704 -0.493,0.238 -0.135,0.69 0.167,0.96 -0.069,0.993 -0.06,2.014 -0.204,2.991 -0.712,4.7 0.744,6.204 4.892,6.038 9.758,-0.39 19.546,-0.074 29.319,-0.179 1.587,0 4.063,1.112 4.56,-0.917 0.633,-2.554 1.516,-5.858 -0.978,-8.189 -0.276,-0.556 -0.549,-0.54 -0.81,0.016 -11.507,0 -23.018,0 -34.526,-0.016 z m 35.353,-26.052 c -0.142,-0.404 -0.285,-0.813 -0.429,-1.217 -0.137,0.422 -0.263,0.826 -0.397,1.233 -11.778,0 -23.571,0.015 -35.35,0.015 -0.145,-0.422 -0.273,-0.826 -0.407,-1.233 -0.144,0.39 -0.277,0.798 -0.422,1.202 -2.449,7.904 -1.45,9.842 5.095,9.842 9.811,0 19.621,0.045 29.431,-0.03 1.36,-0.014 3.766,1.021 3.845,-1.429 0.092,-2.748 1.878,-6.294 -1.366,-8.383 z m -42.904,-90.791 c 0.279,0.556 0.549,0.571 0.828,0 13.305,-0.061 26.6,-0.271 39.882,-0.089 3.306,0.028 4.006,-1.293 3.929,-4.869 -0.067,-3.321 -0.277,-5.107 -3.78,-5.049 -13.992,0.256 -28.005,0.182 -41.991,0.047 -2.803,-0.017 -3.728,0.75 -3.977,4.342 -0.35,5.169 1.783,5.844 5.109,5.618 z M 528.035,193.8 c 10.509,0 21.004,-0.227 31.504,0.105 5.95,0.194 2.32,-4.866 3.14,-7.333 0.993,-3.019 -1.493,-2.418 -2.852,-2.418 -20.99,-0.028 -41.994,0.076 -62.989,-0.089 -3.54,-0.047 -3.293,2.146 -3.33,4.974 -0.028,2.974 0.061,4.941 3.456,4.866 10.361,-0.27 20.721,-0.105 31.071,-0.105 z m -0.128,177.136 c 10.374,0 20.756,-0.09 31.123,0.077 2.681,0.044 3.756,-0.768 3.562,-4.147 -0.174,-2.81 0.127,-4.989 -3.388,-4.974 -20.608,0.196 -41.223,0.196 -61.818,0.015 -3.306,-0.03 -3.472,1.668 -3.606,4.764 -0.165,3.649 1.035,4.387 3.854,4.343 10.088,-0.183 20.185,-0.078 30.273,-0.078 z m 9.743,-126.025 c 7.145,0 14.297,-0.148 21.439,0.077 2.827,0.104 3.336,-1.337 3.117,-4.133 -0.172,-2.342 0.715,-5.018 -2.864,-4.974 -14.43,0.152 -28.86,0.138 -43.296,-0.014 -3.47,-0.03 -2.766,2.541 -2.94,4.959 -0.195,2.824 0.249,4.251 3.104,4.161 7.136,-0.224 14.288,-0.076 21.44,-0.076 z m 4.989,25.617 c 5.61,0 11.215,-0.148 16.812,0.06 3.501,0.122 2.871,-2.566 2.871,-4.986 0,-2.449 0.479,-4.854 -3.016,-4.777 -11.197,0.256 -22.408,0.239 -33.605,0.03 -3.661,-0.077 -2.729,2.673 -2.819,4.926 -0.084,2.467 -0.57,5.021 2.958,4.825 5.591,-0.317 11.211,-0.092 16.799,-0.078 z m 0,25.409 c 5.47,0 10.946,-0.213 16.392,0.074 2.974,0.164 3.17,-1.593 3.05,-4.236 -0.106,-2.39 0.623,-4.959 -2.913,-4.885 -11.059,0.212 -22.14,0.196 -33.206,-0.014 -3.38,-0.061 -3.043,2.193 -3.058,4.777 -0.022,2.479 -0.164,4.507 2.923,4.343 5.596,-0.272 11.207,-0.077 16.812,-0.059 z"
       id="path54"
       inkscape:connector-curvature="0"
       style="clip-rule:evenodd;fill-rule:evenodd" /></g></svg>